PathFileType	4	(X/Y/Z)	D:\MotionData\NordSprintingStudy\Kristen_Nord_test_zero_plates\Trimmed_NordZeroed000004.trc
DataRate	CameraRate	NumFrames	NumMarkers	Units	OrigDataRate	OrigDataStartFrame	OrigNumFrames
200.00	200.00	      4	52	mm	200.00	1674	      1912
Frame#	Time	C7			R_Shoulder			L_Shoulder			Sternum			R_humerus			R_elbow_med			R_elbow_lat			R_forearm			R_wrist_radius			R_wrist_ulna			L_humerus			L_elbow_med			L_elbow_lat			L_forearm			L_wrist_radius			L_wrist_ulna			r.ASIS			r.PSIS			r_IC			L.ASIS			L.PSIS			l_IC			r_thigh1			r_thigh2			r_thigh3			r_thigh4			r_thigh5			r_knee			r_mknee			r_shank_antsup			r_sh2			r_sh3			r_sh4			r_ankle			r_mankle			r_calc			r_5meta			r_toe			L_thigh1			L_thigh2			L_thigh3			L_thigh4			L_knee			L_mknee			L_shank_antsup			L_sh2			L_sh3			L_ankle			L_mankle			L_calc			L_5meta			L_toe			
		X1	Y1	Z1	X2	Y2	Z2	X3	Y3	Z3	X4	Y4	Z4	X5	Y5	Z5	X6	Y6	Z6	X7	Y7	Z7	X8	Y8	Z8	X9	Y9	Z9	X10	Y10	Z10	X11	Y11	Z11	X12	Y12	Z12	X13	Y13	Z13	X14	Y14	Z14	X15	Y15	Z15	X16	Y16	Z16	X17	Y17	Z17	X18	Y18	Z18	X19	Y19	Z19	X20	Y20	Z20	X21	Y21	Z21	X22	Y22	Z22	X23	Y23	Z23	X24	Y24	Z24	X25	Y25	Z25	X26	Y26	Z26	X27	Y27	Z27	X28	Y28	Z28	X29	Y29	Z29	X30	Y30	Z30	X31	Y31	Z31	X32	Y32	Z32	X33	Y33	Z33	X34	Y34	Z34	X35	Y35	Z35	X36	Y36	Z36	X37	Y37	Z37	X38	Y38	Z38	X39	Y39	Z39	X40	Y40	Z40	X41	Y41	Z41	X42	Y42	Z42	X43	Y43	Z43	X44	Y44	Z44	X45	Y45	Z45	X46	Y46	Z46	X47	Y47	Z47	X48	Y48	Z48	X49	Y49	Z49	X50	Y50	Z50	X51	Y51	Z51	X52	Y52	Z52	

1674	8.365	1196.64575	855.31506	1102.09338	1319.60425	887.22028	1086.44519	1061.17041	882.68970	1084.68372	1191.26880	933.14282	985.21002	1467.71472	785.65851	1090.52673	1597.92505	756.24823	1017.15582	1570.36133	719.73590	1089.01270	1586.24072	832.77893	1139.97949	1562.09363	961.74438	1130.76672	1615.10583	938.67371	1171.10742	925.95691	760.45868	1073.45337	780.95905	742.96765	990.38745	801.32294	719.20026	1074.24524	811.30652	814.26361	1113.25220	809.78003	937.67078	1131.05872	883.48224	928.54547	1111.70850	1334.48145	632.81226	626.78583	1283.85547	571.62622	809.04169	1368.41235	644.26678	745.57349	1104.58447	608.89874	616.14532	1169.84070	561.09045	808.63062	1067.71118	640.85687	718.21356	1361.18591	511.42490	443.48874	1354.61987	443.86572	348.89240	1390.97815	401.14417	343.15848	1414.31299	433.26978	495.89005	1404.67126	367.02625	399.58661	1390.61841	319.94846	307.09039	1269.69470	306.71463	306.81937	1415.69421	208.03529	315.75037	1420.98474	86.97379	328.35336	1419.86865	214.16544	392.77899	1410.39258	97.92735	408.97180	1417.88708	-71.35077	373.35812	1337.27661	-72.01169	357.34692	1355.82825	-75.74786	447.29846	1422.62354	-191.03282	310.73755	1380.30042	-181.03001	262.26129	1039.45569	464.89532	487.17273	1033.99756	381.35611	374.42282	1040.30664	371.01559	560.39618	1052.93616	290.44534	447.10889	1036.60144	273.72421	337.24799	1162.75964	269.69345	309.70718	1024.24304	170.53136	324.72168	1036.61389	181.29366	412.94489	1038.99365	59.77795	416.41708	1067.29272	-106.78770	383.66122	1142.58899	-102.10154	357.42700	1107.64783	-113.27950	442.97952	1090.27905	-241.14159	303.95804	1126.43225	-214.81458	262.97794	
1675	8.370	1196.65308	855.71155	1101.77112	1319.59631	887.60315	1086.07874	1061.13623	883.10419	1084.29651	1191.22351	933.52606	984.80280	1467.57190	785.98157	1090.32202	1597.73547	756.41919	1016.82861	1570.19751	719.95062	1088.73523	1586.12305	832.99188	1139.67346	1562.02258	961.96283	1130.40759	1615.08936	938.89996	1170.72595	925.90674	760.90399	1073.10901	780.88092	743.35071	990.08698	801.22711	719.73346	1074.01074	811.40637	814.83209	1112.72839	810.20123	938.14624	1130.26782	883.67224	928.98004	1111.03687	1334.41333	632.96436	626.60358	1283.82239	571.85559	808.84448	1368.33643	644.52026	745.33789	1104.44910	608.99951	616.01501	1169.77734	561.33484	808.50702	1067.62244	641.03729	717.96985	1361.14905	511.44821	443.39407	1354.54272	443.85822	348.80505	1390.97827	401.15009	343.12762	1414.28247	433.39847	495.80933	1404.65393	367.07425	399.52872	1390.66138	319.91895	306.94193	1269.69177	306.70639	306.81320	1415.69556	208.03102	315.73685	1420.95361	86.95452	328.34885	1419.81860	214.19879	392.79028	1410.39124	97.93186	409.03156	1417.99707	-71.40798	373.22934	1337.24744	-71.98354	357.37811	1355.81165	-75.75117	447.27188	1422.69202	-191.01840	310.64575	1379.75610	-180.93983	261.82904	1039.42041	464.95459	487.13641	1033.96887	381.32687	374.32593	1040.28979	371.13486	560.37512	1052.95923	290.56668	447.15543	1036.56360	273.71951	337.28729	1162.73828	269.69217	309.68411	1024.24036	170.50142	324.73059	1036.55945	181.27681	412.88925	1038.97083	59.78689	416.35638	1067.30298	-106.73740	383.56088	1142.65723	-102.09060	357.32498	1107.67224	-113.24547	442.96732	1090.30457	-241.15289	304.01584	1126.55420	-214.86682	263.04959	
1676	8.375	1196.64832	856.14032	1101.39844	1319.54932	887.99615	1085.68555	1061.16040	883.59619	1083.82654	1191.12622	933.88074	984.40100	1467.45947	786.26697	1090.02332	1597.60144	756.57361	1016.59100	1570.00330	720.14954	1088.48962	1586.01538	833.20380	1139.33704	1562.15173	962.25568	1130.19397	1614.93066	939.13086	1170.33826	925.87622	761.40710	1072.82764	780.80182	743.78510	989.80847	801.13654	720.23071	1073.73560	811.48785	815.34906	1112.34363	810.43994	938.80090	1129.20886	883.31165	929.71912	1109.96240	1334.36035	633.11969	626.39722	1283.78345	572.08606	808.72565	1368.27747	644.76965	745.10083	1104.40027	608.99738	615.80072	1170.43018	561.18829	809.17596	1067.52393	641.16693	717.77710	1361.06824	511.54346	443.28839	1354.67957	444.11148	348.46017	1390.91431	401.20737	343.06641	1414.23096	433.49918	495.78110	1404.64624	367.13010	399.50195	1390.67981	319.95279	306.93921	1269.67017	306.69696	306.83493	1415.74426	208.07909	315.77164	1420.96191	86.96816	328.37851	1419.79419	214.18697	392.80542	1410.26843	97.96505	408.98962	1417.99561	-71.42197	373.20184	1337.23340	-71.92617	357.40811	1355.80115	-75.74873	447.26419	1422.61926	-191.05426	310.60440	1379.74976	-180.87086	261.71985	1039.40393	465.01108	487.06104	1033.95313	381.35159	374.31168	1040.25549	371.16556	560.35345	1052.91748	290.59283	447.10239	1036.56641	273.72147	337.28873	1162.74463	269.69962	309.67322	1024.24780	170.53514	324.73666	1036.57458	181.28519	412.87784	1038.99731	59.74870	416.34766	1067.33691	-106.74412	383.64417	1142.71021	-102.08621	357.26288	1107.71692	-113.22768	442.97531	1090.37622	-241.18690	304.05777	1126.53650	-214.87976	263.02509	
1677	8.380	1196.53638	856.68665	1101.00806	1319.53735	888.46857	1085.20288	1061.07922	884.04205	1083.45776	1191.06396	934.24103	984.02600	1467.32910	786.56042	1089.67981	1597.47363	756.70862	1016.25018	1569.87048	720.33453	1088.22510	1585.92627	833.43738	1138.97534	1562.08008	962.42010	1129.82776	1614.87366	939.39691	1169.92969	925.78827	761.80933	1072.52197	780.71979	744.20544	989.49506	801.05023	720.70514	1073.45105	811.59949	815.84521	1111.88245	810.66815	939.28149	1128.72021	883.46893	930.22571	1109.28052	1334.27673	633.26019	626.21716	1283.77344	572.42419	808.51147	1368.20386	645.06360	744.92212	1104.31018	609.07611	615.63824	1170.36475	561.41608	808.99017	1067.40588	641.32648	717.65167	1360.93799	511.63290	443.16772	1354.17725	443.83502	348.08054	1390.91833	401.25900	343.00757	1414.15540	433.57837	495.72919	1404.58667	367.25388	399.44061	1390.69409	319.94553	306.85782	1269.65479	306.70282	306.81750	1415.73730	208.04372	315.79449	1420.95996	86.96597	328.39310	1419.74695	214.18488	392.82462	1410.18286	97.91904	408.99033	1417.98633	-71.40421	373.14136	1337.23547	-71.94621	357.28030	1355.79480	-75.70364	447.18158	1422.48914	-191.07867	310.43582	1379.79102	-180.89244	261.52673	1039.39075	465.09048	486.97321	1033.95850	381.34241	374.23575	1040.22632	371.21735	560.30383	1052.87366	290.65524	447.01651	1036.57031	273.74008	337.22098	1162.76367	269.69040	309.68658	1024.25549	170.42456	324.70224	1036.57312	181.28035	412.79965	1038.99768	59.75121	416.34592	1067.33875	-106.78526	383.67679	1142.74243	-102.06651	357.16425	1107.71973	-113.21041	442.92685	1090.35950	-241.17535	304.01843	1126.50708	-214.84445	263.05960	
